ISO-10303-21;
HEADER;
FILE_DESCRIPTION(('mockup box model'),'2;1');
FILE_NAME('pj-324m.step','2026-09-17T00:00:00',(''),(''),'','','');
FILE_SCHEMA(('AUTOMOTIVE_DESIGN { 1 0 10303 214 1 1 1 1 }'));
ENDSEC;
DATA;
#1=APPLICATION_CONTEXT('core data for automotive mechanical design processes');
#2=APPLICATION_PROTOCOL_DEFINITION('international standard','automotive_design',2000,#1);
#3=PRODUCT_CONTEXT('',#1,'mechanical');
#4=PRODUCT('pj-324m','pj-324m','',(#3));
#5=PRODUCT_DEFINITION_FORMATION('','',#4);
#6=PRODUCT_DEFINITION_CONTEXT('part definition',#1,'design');
#7=PRODUCT_DEFINITION('design','',#5,#6);
#8=PRODUCT_DEFINITION_SHAPE('','',#7);
#9=SHAPE_DEFINITION_REPRESENTATION(#8,#20);
#10=(LENGTH_UNIT()NAMED_UNIT(*)SI_UNIT(.MILLI.,.METRE.));
#11=(NAMED_UNIT(*)PLANE_ANGLE_UNIT()SI_UNIT($,.RADIAN.));
#12=(NAMED_UNIT(*)SI_UNIT($,.STERADIAN.)SOLID_ANGLE_UNIT());
#13=UNCERTAINTY_MEASURE_WITH_UNIT(LENGTH_MEASURE(1.E-07),#10,'distance_accuracy_value','confusion accuracy');
#14=(GEOMETRIC_REPRESENTATION_CONTEXT(3)GLOBAL_UNCERTAINTY_ASSIGNED_CONTEXT((#13))GLOBAL_UNIT_ASSIGNED_CONTEXT((#10,#11,#12))REPRESENTATION_CONTEXT('Context #1','3D Context with UNIT and UNCERTAINTY'));
#15=AXIS2_PLACEMENT_3D('',#16,#17,#18);
#16=CARTESIAN_POINT('',(0.,0.,0.));
#17=DIRECTION('',(0.,0.,1.));
#18=DIRECTION('',(1.,0.,0.));
#20=ADVANCED_BREP_SHAPE_REPRESENTATION('pj-324m',(#15,#249,#399),#14);
#21=PRODUCT_RELATED_PRODUCT_CATEGORY('part',$,(#4));
#100=CARTESIAN_POINT('',(-7.3900,-5.8500,0.0000));
#101=VERTEX_POINT('',#100);
#102=CARTESIAN_POINT('',(6.8100,-5.8500,0.0000));
#103=VERTEX_POINT('',#102);
#104=CARTESIAN_POINT('',(-7.3900,5.6500,0.0000));
#105=VERTEX_POINT('',#104);
#106=CARTESIAN_POINT('',(6.8100,5.6500,0.0000));
#107=VERTEX_POINT('',#106);
#108=CARTESIAN_POINT('',(-7.3900,-5.8500,6.3000));
#109=VERTEX_POINT('',#108);
#110=CARTESIAN_POINT('',(6.8100,-5.8500,6.3000));
#111=VERTEX_POINT('',#110);
#112=CARTESIAN_POINT('',(-7.3900,5.6500,6.3000));
#113=VERTEX_POINT('',#112);
#114=CARTESIAN_POINT('',(6.8100,5.6500,6.3000));
#115=VERTEX_POINT('',#114);
#116=CARTESIAN_POINT('',(-7.3900,-5.8500,0.0000));
#117=DIRECTION('',(0.0,1.0,0.0));
#118=VECTOR('',#117,11.5000);
#119=LINE('',#116,#118);
#120=EDGE_CURVE('',#101,#105,#119,.T.);
#121=ORIENTED_EDGE('',*,*,#120,.T.);
#122=CARTESIAN_POINT('',(-7.3900,5.6500,0.0000));
#123=DIRECTION('',(1.0,0.0,0.0));
#124=VECTOR('',#123,14.2000);
#125=LINE('',#122,#124);
#126=EDGE_CURVE('',#105,#107,#125,.T.);
#127=ORIENTED_EDGE('',*,*,#126,.T.);
#128=CARTESIAN_POINT('',(6.8100,5.6500,0.0000));
#129=DIRECTION('',(0.0,-1.0,0.0));
#130=VECTOR('',#129,11.5000);
#131=LINE('',#128,#130);
#132=EDGE_CURVE('',#107,#103,#131,.T.);
#133=ORIENTED_EDGE('',*,*,#132,.T.);
#134=CARTESIAN_POINT('',(6.8100,-5.8500,0.0000));
#135=DIRECTION('',(-1.0,0.0,0.0));
#136=VECTOR('',#135,14.2000);
#137=LINE('',#134,#136);
#138=EDGE_CURVE('',#103,#101,#137,.T.);
#139=ORIENTED_EDGE('',*,*,#138,.T.);
#140=EDGE_LOOP('',(#121,#127,#133,#139));
#141=FACE_OUTER_BOUND('',#140,.T.);
#142=CARTESIAN_POINT('',(-7.3900,-5.8500,0.0000));
#143=DIRECTION('',(0.0,0.0,-1.0));
#144=DIRECTION('',(1.0,0.0,0.0));
#145=AXIS2_PLACEMENT_3D('',#142,#143,#144);
#146=PLANE('',#145);
#147=ADVANCED_FACE('',(#141),#146,.T.);
#148=CARTESIAN_POINT('',(-7.3900,-5.8500,6.3000));
#149=DIRECTION('',(1.0,0.0,0.0));
#150=VECTOR('',#149,14.2000);
#151=LINE('',#148,#150);
#152=EDGE_CURVE('',#109,#111,#151,.T.);
#153=ORIENTED_EDGE('',*,*,#152,.T.);
#154=CARTESIAN_POINT('',(6.8100,-5.8500,6.3000));
#155=DIRECTION('',(0.0,1.0,0.0));
#156=VECTOR('',#155,11.5000);
#157=LINE('',#154,#156);
#158=EDGE_CURVE('',#111,#115,#157,.T.);
#159=ORIENTED_EDGE('',*,*,#158,.T.);
#160=CARTESIAN_POINT('',(6.8100,5.6500,6.3000));
#161=DIRECTION('',(-1.0,0.0,0.0));
#162=VECTOR('',#161,14.2000);
#163=LINE('',#160,#162);
#164=EDGE_CURVE('',#115,#113,#163,.T.);
#165=ORIENTED_EDGE('',*,*,#164,.T.);
#166=CARTESIAN_POINT('',(-7.3900,5.6500,6.3000));
#167=DIRECTION('',(0.0,-1.0,0.0));
#168=VECTOR('',#167,11.5000);
#169=LINE('',#166,#168);
#170=EDGE_CURVE('',#113,#109,#169,.T.);
#171=ORIENTED_EDGE('',*,*,#170,.T.);
#172=EDGE_LOOP('',(#153,#159,#165,#171));
#173=FACE_OUTER_BOUND('',#172,.T.);
#174=CARTESIAN_POINT('',(-7.3900,-5.8500,6.3000));
#175=DIRECTION('',(0.0,0.0,1.0));
#176=DIRECTION('',(1.0,0.0,0.0));
#177=AXIS2_PLACEMENT_3D('',#174,#175,#176);
#178=PLANE('',#177);
#179=ADVANCED_FACE('',(#173),#178,.T.);
#180=ORIENTED_EDGE('',*,*,#138,.F.);
#181=CARTESIAN_POINT('',(6.8100,-5.8500,0.0000));
#182=DIRECTION('',(0.0,0.0,1.0));
#183=VECTOR('',#182,6.3000);
#184=LINE('',#181,#183);
#185=EDGE_CURVE('',#103,#111,#184,.T.);
#186=ORIENTED_EDGE('',*,*,#185,.T.);
#187=ORIENTED_EDGE('',*,*,#152,.F.);
#188=CARTESIAN_POINT('',(-7.3900,-5.8500,6.3000));
#189=DIRECTION('',(0.0,0.0,-1.0));
#190=VECTOR('',#189,6.3000);
#191=LINE('',#188,#190);
#192=EDGE_CURVE('',#109,#101,#191,.T.);
#193=ORIENTED_EDGE('',*,*,#192,.T.);
#194=EDGE_LOOP('',(#180,#186,#187,#193));
#195=FACE_OUTER_BOUND('',#194,.T.);
#196=CARTESIAN_POINT('',(-7.3900,-5.8500,0.0000));
#197=DIRECTION('',(0.0,-1.0,0.0));
#198=DIRECTION('',(1.0,0.0,0.0));
#199=AXIS2_PLACEMENT_3D('',#196,#197,#198);
#200=PLANE('',#199);
#201=ADVANCED_FACE('',(#195),#200,.T.);
#202=CARTESIAN_POINT('',(-7.3900,5.6500,0.0000));
#203=DIRECTION('',(0.0,0.0,1.0));
#204=VECTOR('',#203,6.3000);
#205=LINE('',#202,#204);
#206=EDGE_CURVE('',#105,#113,#205,.T.);
#207=ORIENTED_EDGE('',*,*,#206,.T.);
#208=ORIENTED_EDGE('',*,*,#164,.F.);
#209=CARTESIAN_POINT('',(6.8100,5.6500,6.3000));
#210=DIRECTION('',(0.0,0.0,-1.0));
#211=VECTOR('',#210,6.3000);
#212=LINE('',#209,#211);
#213=EDGE_CURVE('',#115,#107,#212,.T.);
#214=ORIENTED_EDGE('',*,*,#213,.T.);
#215=ORIENTED_EDGE('',*,*,#126,.F.);
#216=EDGE_LOOP('',(#207,#208,#214,#215));
#217=FACE_OUTER_BOUND('',#216,.T.);
#218=CARTESIAN_POINT('',(-7.3900,5.6500,0.0000));
#219=DIRECTION('',(0.0,1.0,0.0));
#220=DIRECTION('',(1.0,0.0,0.0));
#221=AXIS2_PLACEMENT_3D('',#218,#219,#220);
#222=PLANE('',#221);
#223=ADVANCED_FACE('',(#217),#222,.T.);
#224=ORIENTED_EDGE('',*,*,#192,.F.);
#225=ORIENTED_EDGE('',*,*,#170,.F.);
#226=ORIENTED_EDGE('',*,*,#206,.F.);
#227=ORIENTED_EDGE('',*,*,#120,.F.);
#228=EDGE_LOOP('',(#224,#225,#226,#227));
#229=FACE_OUTER_BOUND('',#228,.T.);
#230=CARTESIAN_POINT('',(-7.3900,-5.8500,0.0000));
#231=DIRECTION('',(-1.0,0.0,0.0));
#232=DIRECTION('',(0.0,1.0,0.0));
#233=AXIS2_PLACEMENT_3D('',#230,#231,#232);
#234=PLANE('',#233);
#235=ADVANCED_FACE('',(#229),#234,.T.);
#236=ORIENTED_EDGE('',*,*,#132,.F.);
#237=ORIENTED_EDGE('',*,*,#213,.F.);
#238=ORIENTED_EDGE('',*,*,#158,.F.);
#239=ORIENTED_EDGE('',*,*,#185,.F.);
#240=EDGE_LOOP('',(#236,#237,#238,#239));
#241=FACE_OUTER_BOUND('',#240,.T.);
#242=CARTESIAN_POINT('',(6.8100,-5.8500,0.0000));
#243=DIRECTION('',(1.0,0.0,0.0));
#244=DIRECTION('',(0.0,1.0,0.0));
#245=AXIS2_PLACEMENT_3D('',#242,#243,#244);
#246=PLANE('',#245);
#247=ADVANCED_FACE('',(#241),#246,.T.);
#248=CLOSED_SHELL('',(#147,#179,#201,#223,#235,#247));
#249=MANIFOLD_SOLID_BREP('box',#248);
#250=CARTESIAN_POINT('',(-10.9000,-3.3500,0.1500));
#251=VERTEX_POINT('',#250);
#252=CARTESIAN_POINT('',(-7.3900,-3.3500,0.1500));
#253=VERTEX_POINT('',#252);
#254=CARTESIAN_POINT('',(-10.9000,2.6500,0.1500));
#255=VERTEX_POINT('',#254);
#256=CARTESIAN_POINT('',(-7.3900,2.6500,0.1500));
#257=VERTEX_POINT('',#256);
#258=CARTESIAN_POINT('',(-10.9000,-3.3500,6.1500));
#259=VERTEX_POINT('',#258);
#260=CARTESIAN_POINT('',(-7.3900,-3.3500,6.1500));
#261=VERTEX_POINT('',#260);
#262=CARTESIAN_POINT('',(-10.9000,2.6500,6.1500));
#263=VERTEX_POINT('',#262);
#264=CARTESIAN_POINT('',(-7.3900,2.6500,6.1500));
#265=VERTEX_POINT('',#264);
#266=CARTESIAN_POINT('',(-10.9000,-3.3500,0.1500));
#267=DIRECTION('',(0.0,1.0,0.0));
#268=VECTOR('',#267,6.0000);
#269=LINE('',#266,#268);
#270=EDGE_CURVE('',#251,#255,#269,.T.);
#271=ORIENTED_EDGE('',*,*,#270,.T.);
#272=CARTESIAN_POINT('',(-10.9000,2.6500,0.1500));
#273=DIRECTION('',(1.0,0.0,0.0));
#274=VECTOR('',#273,3.5100);
#275=LINE('',#272,#274);
#276=EDGE_CURVE('',#255,#257,#275,.T.);
#277=ORIENTED_EDGE('',*,*,#276,.T.);
#278=CARTESIAN_POINT('',(-7.3900,2.6500,0.1500));
#279=DIRECTION('',(0.0,-1.0,0.0));
#280=VECTOR('',#279,6.0000);
#281=LINE('',#278,#280);
#282=EDGE_CURVE('',#257,#253,#281,.T.);
#283=ORIENTED_EDGE('',*,*,#282,.T.);
#284=CARTESIAN_POINT('',(-7.3900,-3.3500,0.1500));
#285=DIRECTION('',(-1.0,0.0,0.0));
#286=VECTOR('',#285,3.5100);
#287=LINE('',#284,#286);
#288=EDGE_CURVE('',#253,#251,#287,.T.);
#289=ORIENTED_EDGE('',*,*,#288,.T.);
#290=EDGE_LOOP('',(#271,#277,#283,#289));
#291=FACE_OUTER_BOUND('',#290,.T.);
#292=CARTESIAN_POINT('',(-10.9000,-3.3500,0.1500));
#293=DIRECTION('',(0.0,0.0,-1.0));
#294=DIRECTION('',(1.0,0.0,0.0));
#295=AXIS2_PLACEMENT_3D('',#292,#293,#294);
#296=PLANE('',#295);
#297=ADVANCED_FACE('',(#291),#296,.T.);
#298=CARTESIAN_POINT('',(-10.9000,-3.3500,6.1500));
#299=DIRECTION('',(1.0,0.0,0.0));
#300=VECTOR('',#299,3.5100);
#301=LINE('',#298,#300);
#302=EDGE_CURVE('',#259,#261,#301,.T.);
#303=ORIENTED_EDGE('',*,*,#302,.T.);
#304=CARTESIAN_POINT('',(-7.3900,-3.3500,6.1500));
#305=DIRECTION('',(0.0,1.0,0.0));
#306=VECTOR('',#305,6.0000);
#307=LINE('',#304,#306);
#308=EDGE_CURVE('',#261,#265,#307,.T.);
#309=ORIENTED_EDGE('',*,*,#308,.T.);
#310=CARTESIAN_POINT('',(-7.3900,2.6500,6.1500));
#311=DIRECTION('',(-1.0,0.0,0.0));
#312=VECTOR('',#311,3.5100);
#313=LINE('',#310,#312);
#314=EDGE_CURVE('',#265,#263,#313,.T.);
#315=ORIENTED_EDGE('',*,*,#314,.T.);
#316=CARTESIAN_POINT('',(-10.9000,2.6500,6.1500));
#317=DIRECTION('',(0.0,-1.0,0.0));
#318=VECTOR('',#317,6.0000);
#319=LINE('',#316,#318);
#320=EDGE_CURVE('',#263,#259,#319,.T.);
#321=ORIENTED_EDGE('',*,*,#320,.T.);
#322=EDGE_LOOP('',(#303,#309,#315,#321));
#323=FACE_OUTER_BOUND('',#322,.T.);
#324=CARTESIAN_POINT('',(-10.9000,-3.3500,6.1500));
#325=DIRECTION('',(0.0,0.0,1.0));
#326=DIRECTION('',(1.0,0.0,0.0));
#327=AXIS2_PLACEMENT_3D('',#324,#325,#326);
#328=PLANE('',#327);
#329=ADVANCED_FACE('',(#323),#328,.T.);
#330=ORIENTED_EDGE('',*,*,#288,.F.);
#331=CARTESIAN_POINT('',(-7.3900,-3.3500,0.1500));
#332=DIRECTION('',(0.0,0.0,1.0));
#333=VECTOR('',#332,6.0000);
#334=LINE('',#331,#333);
#335=EDGE_CURVE('',#253,#261,#334,.T.);
#336=ORIENTED_EDGE('',*,*,#335,.T.);
#337=ORIENTED_EDGE('',*,*,#302,.F.);
#338=CARTESIAN_POINT('',(-10.9000,-3.3500,6.1500));
#339=DIRECTION('',(0.0,0.0,-1.0));
#340=VECTOR('',#339,6.0000);
#341=LINE('',#338,#340);
#342=EDGE_CURVE('',#259,#251,#341,.T.);
#343=ORIENTED_EDGE('',*,*,#342,.T.);
#344=EDGE_LOOP('',(#330,#336,#337,#343));
#345=FACE_OUTER_BOUND('',#344,.T.);
#346=CARTESIAN_POINT('',(-10.9000,-3.3500,0.1500));
#347=DIRECTION('',(0.0,-1.0,0.0));
#348=DIRECTION('',(1.0,0.0,0.0));
#349=AXIS2_PLACEMENT_3D('',#346,#347,#348);
#350=PLANE('',#349);
#351=ADVANCED_FACE('',(#345),#350,.T.);
#352=CARTESIAN_POINT('',(-10.9000,2.6500,0.1500));
#353=DIRECTION('',(0.0,0.0,1.0));
#354=VECTOR('',#353,6.0000);
#355=LINE('',#352,#354);
#356=EDGE_CURVE('',#255,#263,#355,.T.);
#357=ORIENTED_EDGE('',*,*,#356,.T.);
#358=ORIENTED_EDGE('',*,*,#314,.F.);
#359=CARTESIAN_POINT('',(-7.3900,2.6500,6.1500));
#360=DIRECTION('',(0.0,0.0,-1.0));
#361=VECTOR('',#360,6.0000);
#362=LINE('',#359,#361);
#363=EDGE_CURVE('',#265,#257,#362,.T.);
#364=ORIENTED_EDGE('',*,*,#363,.T.);
#365=ORIENTED_EDGE('',*,*,#276,.F.);
#366=EDGE_LOOP('',(#357,#358,#364,#365));
#367=FACE_OUTER_BOUND('',#366,.T.);
#368=CARTESIAN_POINT('',(-10.9000,2.6500,0.1500));
#369=DIRECTION('',(0.0,1.0,0.0));
#370=DIRECTION('',(1.0,0.0,0.0));
#371=AXIS2_PLACEMENT_3D('',#368,#369,#370);
#372=PLANE('',#371);
#373=ADVANCED_FACE('',(#367),#372,.T.);
#374=ORIENTED_EDGE('',*,*,#342,.F.);
#375=ORIENTED_EDGE('',*,*,#320,.F.);
#376=ORIENTED_EDGE('',*,*,#356,.F.);
#377=ORIENTED_EDGE('',*,*,#270,.F.);
#378=EDGE_LOOP('',(#374,#375,#376,#377));
#379=FACE_OUTER_BOUND('',#378,.T.);
#380=CARTESIAN_POINT('',(-10.9000,-3.3500,0.1500));
#381=DIRECTION('',(-1.0,0.0,0.0));
#382=DIRECTION('',(0.0,1.0,0.0));
#383=AXIS2_PLACEMENT_3D('',#380,#381,#382);
#384=PLANE('',#383);
#385=ADVANCED_FACE('',(#379),#384,.T.);
#386=ORIENTED_EDGE('',*,*,#282,.F.);
#387=ORIENTED_EDGE('',*,*,#363,.F.);
#388=ORIENTED_EDGE('',*,*,#308,.F.);
#389=ORIENTED_EDGE('',*,*,#335,.F.);
#390=EDGE_LOOP('',(#386,#387,#388,#389));
#391=FACE_OUTER_BOUND('',#390,.T.);
#392=CARTESIAN_POINT('',(-7.3900,-3.3500,0.1500));
#393=DIRECTION('',(1.0,0.0,0.0));
#394=DIRECTION('',(0.0,1.0,0.0));
#395=AXIS2_PLACEMENT_3D('',#392,#393,#394);
#396=PLANE('',#395);
#397=ADVANCED_FACE('',(#391),#396,.T.);
#398=CLOSED_SHELL('',(#297,#329,#351,#373,#385,#397));
#399=MANIFOLD_SOLID_BREP('box',#398);
ENDSEC;
END-ISO-10303-21;
